<svg xmlns="http://www.w3.org/2000/svg" viewBox="0 0 146.29 103"><defs><style>.cls-1,.cls-4{stroke:#fff;stroke-miterlimit:10;stroke-width:3px;}.cls-2{fill:#e8d6d2;}.cls-3{fill:#bccddf;}.cls-4{fill:#f794a2;}.cls-5{fill:#fff;}</style></defs><title>logo_2</title><g id="Layer_2" data-name="Layer 2"><g id="Layer_1-2" data-name="Layer 1"><circle class="cls-1" cx="45.5" cy="51.5" r="44"/><circle class="cls-2" cx="45.5" cy="51.5" r="12.5"/><circle class="cls-3" cx="44.79" cy="51.5" r="2.79"/><rect class="cls-4" x="44.79" y="1.5" width="100" height="100" rx="3.44" ry="3.44"/><path class="cls-5" d="M69.9,27.66h2.26l1.73,8c.21,1,.4,2,.58,3s.33,2.06.47,3.16c0-.15,0-.26,0-.34a1.09,1.09,0,0,1,0-.17l.36-2.25.33-2.13.3-1.41,1.53-7.86h2.29l1.8,19.6H79.09l-.44-6.65c0-.34,0-.63,0-.88s0-.44,0-.61l-.12-2.62-.06-2.42a.51.51,0,0,0,0-.1c0-.06,0-.13,0-.23l-.06.4c-.07.46-.13.87-.19,1.22s-.1.64-.14.87L77.66,38l-.13.68-1.65,8.55H74.1l-1.54-7.39c-.22-1-.4-2-.57-3s-.31-2-.45-3.16l-.76,13.51H68.29Z"/><path class="cls-5" d="M91.17,34.12V47.26H88.74V45.57a4.1,4.1,0,0,1-1,1.49,2.17,2.17,0,0,1-1.37.41,2.52,2.52,0,0,1-2.4-1.68,13.47,13.47,0,0,1-.76-5.26,12.36,12.36,0,0,1,.76-5,2.51,2.51,0,0,1,2.4-1.6,2.71,2.71,0,0,1,2.41,1.7V34.12Zm-5.49,6.52A12.8,12.8,0,0,0,86,44.25a1.28,1.28,0,0,0,1.24,1c.54,0,.93-.35,1.18-1.06a12.62,12.62,0,0,0,.37-3.52,12.61,12.61,0,0,0-.37-3.53c-.25-.71-.64-1.07-1.18-1.07a1.28,1.28,0,0,0-1.23,1A11.41,11.41,0,0,0,85.68,40.64Z"/><path class="cls-5" d="M93.92,34.12h2.43v1.64a4.58,4.58,0,0,1,1.23-1.46,3.1,3.1,0,0,1,1.61-.48v2.54a2.45,2.45,0,0,0-.43,0,2.3,2.3,0,0,0-1.87.67,3.73,3.73,0,0,0-.54,2.31v8H93.92Z"/><path class="cls-5" d="M100.27,34.12h2.6l.95,4.17c.2.84.36,1.74.5,2.68s.24,2,.33,3.09c0-.26.08-.41.08-.45l.29-2c.11-.74.32-1.86.64-3.36l.88-4.17h2.35l-3.43,13.14h-1.64Z"/><path class="cls-5" d="M111.91,27l2.11.62-2.52,6.91-1.33-.38Z"/><path class="cls-5" d="M121,34.39v2.27a3.11,3.11,0,0,0-1.87-.66,1.54,1.54,0,0,0-.61.12,1.46,1.46,0,0,0-.49.31,1.33,1.33,0,0,0-.33.47,1.39,1.39,0,0,0-.12.57c0,.63.57,1.38,1.7,2.24a10.13,10.13,0,0,1,1.14,1,4.2,4.2,0,0,1,.7.86,3.8,3.8,0,0,1,.5,2,3.92,3.92,0,0,1-1,2.83,3.6,3.6,0,0,1-2.73,1.06,4.21,4.21,0,0,1-2.13-.63V44.5a3.38,3.38,0,0,0,2,.78,1.45,1.45,0,0,0,1.66-1.64,1.85,1.85,0,0,0-.3-1,2.67,2.67,0,0,0-.45-.5c-.2-.19-.45-.4-.75-.64a10.29,10.29,0,0,1-2.08-2,3.73,3.73,0,0,1-.53-2,3.62,3.62,0,0,1,1-2.6,3.45,3.45,0,0,1,2.57-1A4.55,4.55,0,0,1,121,34.39Z"/><path class="cls-5" d="M67.41,51.66H76V54h-3V71.26H70.46V54h-3Z"/><path class="cls-5" d="M76.53,58.12H79v8.79a3.46,3.46,0,0,0,.37,1.74,1.21,1.21,0,0,0,1.12.52,1.31,1.31,0,0,0,1.15-.46A3.1,3.1,0,0,0,81.92,67V58.12h2.43V66a10.72,10.72,0,0,1-.41,3.68c-.56,1.21-1.74,1.81-3.53,1.81a3.7,3.7,0,0,1-3-1.07,5.64,5.64,0,0,1-.89-3.59Z"/><path class="cls-5" d="M87.09,58.12h2.43v1.51a3.07,3.07,0,0,1,2.69-1.72,2.4,2.4,0,0,1,2.28,1.25,6.58,6.58,0,0,1,.38,2.76v9.34H92.45V62.48a4.08,4.08,0,0,0-.32-1.89A1.14,1.14,0,0,0,91,60a1.66,1.66,0,0,0-.71.14,1.16,1.16,0,0,0-.46.47,2.51,2.51,0,0,0-.26.85,7.72,7.72,0,0,0-.08,1.28v8.49H87.09Z"/><path class="cls-5" d="M102.69,66.83H105q-.26,4.64-3.8,4.64a3.87,3.87,0,0,1-1.81-.4,3.11,3.11,0,0,1-1.25-1.22,6.09,6.09,0,0,1-.73-2.09,16.49,16.49,0,0,1-.24-3,10.6,10.6,0,0,1,1-5.16,3.24,3.24,0,0,1,3-1.67c2.64,0,4,2.32,4,7v.31H99.49c0,2.81.56,4.21,1.68,4.21S102.69,68.53,102.69,66.83Zm-.12-3.41a8.87,8.87,0,0,0-.47-2.72,1.16,1.16,0,0,0-2.14,0,9.2,9.2,0,0,0-.47,2.72Z"/><path class="cls-5" d="M112.28,58.39v2.27a3.09,3.09,0,0,0-1.87-.66,1.54,1.54,0,0,0-.61.12,1.57,1.57,0,0,0-.49.31,1.65,1.65,0,0,0-.33.47,1.39,1.39,0,0,0-.12.57c0,.63.57,1.38,1.71,2.24a12.3,12.3,0,0,1,1.14,1,5,5,0,0,1,.7.86,3.8,3.8,0,0,1,.49,2,3.88,3.88,0,0,1-1,2.83,3.57,3.57,0,0,1-2.73,1.06,4.21,4.21,0,0,1-2.13-.63V68.5a3.41,3.41,0,0,0,2,.78,1.46,1.46,0,0,0,1.67-1.64,1.78,1.78,0,0,0-.31-1,3,3,0,0,0-.44-.5c-.21-.19-.46-.4-.75-.64a9.77,9.77,0,0,1-2.08-2,4,4,0,0,1,.44-4.62,3.46,3.46,0,0,1,2.58-1A4.51,4.51,0,0,1,112.28,58.39Z"/><rect class="cls-3" x="52.71" y="9" width="2" height="75" rx="1" ry="1"/><rect class="cls-3" x="89.21" y="-27.5" width="2" height="75" rx="1" ry="1" transform="translate(80.21 100.21) rotate(-90)"/><rect class="cls-3" x="135.29" y="19" width="2" height="75" rx="1" ry="1" transform="translate(272.58 113) rotate(180)"/><rect class="cls-3" x="98.79" y="55.5" width="2" height="75" rx="1" ry="1" transform="translate(192.79 -6.79) rotate(90)"/></g></g></svg>