<svg xmlns="http://www.w3.org/2000/svg" viewBox="0 0 146.29 103"><defs><style>.cls-1,.cls-4{stroke:#fff;stroke-miterlimit:10;stroke-width:3px;}.cls-2{fill:#e8d6d2;}.cls-3{fill:#bccddf;}.cls-4{fill:#f794a2;}.cls-5{font-size:26px;fill:#fff;font-family:Futura-CondensedMedium, Futura;}.cls-6{letter-spacing:0.03em;}.cls-7{letter-spacing:-0.02em;}.cls-8{letter-spacing:-0.03em;}</style></defs><title>logo_1</title><g id="Layer_2" data-name="Layer 2"><g id="Layer_1-2" data-name="Layer 1"><circle class="cls-1" cx="45.5" cy="51.5" r="44"/><circle class="cls-2" cx="45.5" cy="51.5" r="12.5"/><circle class="cls-3" cx="44.79" cy="51.5" r="2.79"/><rect class="cls-4" x="44.79" y="1.5" width="100" height="100" rx="3.44" ry="3.44"/><text class="cls-5" transform="translate(67.46 47.26)">Ma<tspan class="cls-6" x="25.09" y="0">r</tspan><tspan x="32.7" y="0">v</tspan><tspan class="cls-7" x="41.53" y="0">’</tspan><tspan x="47.06" y="0">s</tspan><tspan class="cls-8" x="0" y="24">T</tspan><tspan x="7.69" y="24">unes</tspan></text><rect class="cls-3" x="52.71" y="9" width="2" height="75" rx="1" ry="1"/><rect class="cls-3" x="89.21" y="-27.5" width="2" height="75" rx="1" ry="1" transform="translate(80.21 100.21) rotate(-90)"/><rect class="cls-3" x="135.29" y="19" width="2" height="75" rx="1" ry="1" transform="translate(272.58 113) rotate(180)"/><rect class="cls-3" x="98.79" y="55.5" width="2" height="75" rx="1" ry="1" transform="translate(192.79 -6.79) rotate(90)"/></g></g></svg>